<?xml version="1.0" encoding="UTF-8"?>
<svg version="1.1" viewBox="0 0 543.78 276.7" xml:space="preserve" xmlns="http://www.w3.org/2000/svg">
	<g transform="translate(-216.79 -343.1)">
		<path d="m313.63 619.29v-33.189h6.0894v33.189zm13.62 0v-23.846h4.323l0.51132 2.0918q2.1382-2.6031 6.3682-2.6031 6.1823 0 7.9022 4.6019 0.69725 1.8593 0.69725 6.0894v13.666h-5.764v-13.015q0-3.4398-0.92967-4.9273-0.92967-1.4875-3.0679-1.4875-2.3242 0-3.3003 1.6269-0.97616 1.5804-0.97616 5.4851v12.318zm24.078-4.0441 4.23-2.4636q1.0226 1.441 2.1382 1.9523t3.2538 0.51132q4.7413 0 4.7413-3.0214 0-1.5804-1.3015-2.0918-0.74374-0.32539-3.8117-0.69726-4.4159-0.5578-6.2288-2.0918-1.7664-1.534-1.7664-4.8343 0-3.6722 2.2312-5.6245 2.2312-1.9523 6.3682-1.9523 6.5077 0 9.3432 4.5554l-4.2765 2.4636q-0.92967-1.3945-1.9523-1.9058-1.0226-0.5578-2.696-0.5578-3.5328 0-3.5328 2.7425 0 1.3015 0.8367 1.8594 0.83671 0.51132 3.3003 0.79022 5.0202 0.5578 6.7866 1.8129 2.1847 1.534 2.1847 5.6245 0 3.8116-2.4636 5.671-2.4171 1.8129-7.5303 1.8129-7.4374 0-9.8545-4.5554zm26.449-15.247h-2.696v-4.5554h2.696l0.32538-6.9725h5.4386v6.9725h4.7413v4.5554h-4.7413v9.901q0 2.7425 0.8367 3.7652 0.88319 0.97616 3.2538 0.92967h0.65077v4.6948h-0.8367q-5.9964 0-7.8557-1.8594-1.8129-1.9058-1.8129-8.0881zm15.665-8.2741v-5.9034h5.764v5.9034zm0 27.565v-23.846h5.764v23.846zm13.341-19.291h-2.696v-4.5554h2.696l0.32538-6.9725h5.4386v6.9725h4.7413v4.5554h-4.7413v9.901q0 2.7425 0.8367 3.7652 0.88319 0.97616 3.2538 0.92967h0.65077v4.6948h-0.8367q-5.9964 0-7.8557-1.8594-1.8129-1.9058-1.8129-8.0881zm15.526-4.5554h5.764v12.969q0 3.4863 0.83671 4.9738 0.88319 1.4875 2.9285 1.4875 2.2312 0 3.1144-1.6269 0.92967-1.6269 0.92967-5.5316v-12.272h5.764v23.846h-3.9976l-0.69725-2.2312q-1.8129 2.7425-6.2288 2.7425-6.0894 0-7.7163-4.6019-0.69725-1.9523-0.69725-6.1358zm26.868 4.5554h-2.696v-4.5554h2.696l0.32539-6.9725h5.4386v6.9725h4.7413v4.5554h-4.7413v9.901q0 2.7425 0.8367 3.7652 0.88319 0.97616 3.2538 0.92967h0.65077v4.6948h-0.8367q-5.9964 0-7.8557-1.8594-1.8129-1.9058-1.8129-8.0881zm25.706 0h-2.7425v-4.5554h2.7425v-2.6031q0-3.9511 1.6734-5.3921 1.7199-1.441 6.1823-1.348h2.696v4.323h-1.4875q-2.0918-0.0465-2.696 0.51132-0.60429 0.51132-0.60429 2.4172v2.0918h5.0202v4.5554h-5.0202v19.291h-5.764zm15.526-4.5554h5.764v12.969q0 3.4863 0.8367 4.9738 0.88319 1.4875 2.9285 1.4875 2.2312 0 3.1144-1.6269 0.92967-1.6269 0.92967-5.5316v-12.272h5.764v23.846h-3.9976l-0.69726-2.2312q-1.8129 2.7425-6.2288 2.7425-6.0894 0-7.7163-4.6019-0.69725-1.9523-0.69725-6.1358zm2.6031-3.3003v-5.764h5.1597v5.764zm9.1108 0v-5.764h5.1597v5.764zm14.503 27.146v-23.846h4.4159l0.69725 1.7199q2.0453-2.2312 4.9273-2.2312 2.4172 0 5.1132 1.4875l-2.5101 4.7413q-1.6269-1.2551-3.1609-1.2551-1.9988 0-2.882 1.8594-0.83671 1.8129-0.83671 5.9964v11.528zm28.123 0v-33.189h6.0894v33.189zm13.62 0v-23.846h4.323l0.51132 2.0918q2.1382-2.6031 6.3682-2.6031 6.1823 0 7.9022 4.6019 0.69725 1.8593 0.69725 6.0894v13.666h-5.764v-13.015q0-3.4398-0.92967-4.9273-0.92967-1.4875-3.0679-1.4875-2.3242 0-3.3003 1.6269-0.97616 1.5804-0.97616 5.4851v12.318zm27.472-19.291h-2.7425v-4.5554h2.7425v-2.6031q0-3.9511 1.6734-5.3921 1.7199-1.441 6.1823-1.348h2.696v4.323h-1.4875q-2.0918-0.0465-2.696 0.51132-0.60429 0.51132-0.60429 2.4172v2.0918h5.0202v4.5554h-5.0202v19.291h-5.764zm14.782 9.1573v-3.5792q0-5.6245 2.4172-8.1346 2.4636-2.5101 7.9022-2.5101 5.3921 0 7.8092 2.5101 2.4636 2.5101 2.4636 8.1346v3.5792q0 5.6245-2.4636 8.1346-2.4171 2.5101-7.8092 2.5101-5.4386 0-7.9022-2.5101-2.4172-2.5101-2.4172-8.1346zm14.828-0.41835v-2.789q0-3.4398-1.0691-4.9273-1.0226-1.4875-3.4398-1.4875t-3.4863 1.4875q-1.0691 1.4875-1.0691 4.9273v2.789q0 3.4398 1.0691 4.9273t3.4863 1.4875 3.4398-1.4875q1.0691-1.4875 1.0691-4.9273zm11.9 10.552v-23.846h4.4159l0.69726 1.7199q2.0453-2.2312 4.9273-2.2312 2.4172 0 5.1132 1.4875l-2.5101 4.7413q-1.6269-1.2551-3.1609-1.2551-1.9988 0-2.882 1.8594-0.8367 1.8129-0.8367 5.9964v11.528zm19.337 0v-23.846h4.3695l0.41835 1.9988q1.9058-2.5101 5.8104-2.5101 4.4624 0 6.5077 3.0679 1.9988-3.0679 6.6007-3.0679 6.0429 0 7.7163 4.6019 0.65078 1.9058 0.65078 6.0894v13.666h-5.764v-13.062q0-3.4398-0.83671-4.8808-0.8367-1.4875-2.789-1.4875-1.9988 0-2.882 1.6269-0.88318 1.5804-0.88318 5.2991v12.504h-5.764v-12.969q0-3.4863-0.83671-4.9737-0.79022-1.4875-2.7425-1.4875-2.0918 0-2.975 1.6269-0.8367 1.5804-0.8367 5.4386v12.365zm51.039-14.41v-1.0691q0-2.2312-0.97616-3.2539-0.97615-1.0226-3.0679-1.0226-2.975 0-4.8343 2.3707l-3.9976-2.8355q3.1609-4.137 9.3897-4.137 6.4612 0 8.367 3.9976 0.88319 1.8129 0.88319 5.9034v14.456h-4.5089l-0.37187-1.3945q-2.0918 1.9058-6.5077 1.9058-4.4159 0-6.2753-1.6734-1.8594-1.7199-1.8594-5.7175 0-4.2765 1.9058-5.9034 1.9523-1.6269 7.019-1.6269zm0 3.9046h-4.137q-2.2312 0-3.2074 0.79022-0.92967 0.79022-0.92967 2.6031 0 1.8129 0.88319 2.5101 0.92967 0.69725 3.2538 0.69725 2.7425 0 3.6257-1.3015 0.51132-0.69725 0.51132-2.789zm13.201-8.7854h-2.696v-4.5554h2.696l0.32539-6.9725h5.4386v6.9725h4.7413v4.5554h-4.7413v9.901q0 2.7425 0.8367 3.7652 0.88319 0.97616 3.2538 0.92967h0.65077v4.6948h-0.8367q-5.9964 0-7.8557-1.8594-1.8129-1.9058-1.8129-8.0881zm15.665-8.2741v-5.9034h5.764v5.9034zm0 27.565v-23.846h5.764v23.846zm12.69 0v-33.189h5.764v20.499l8.5065-11.156h6.5542l-8.1811 10.133 8.646 13.713h-6.3218l-5.8104-9.5756-3.3933 4.323v5.2526z" stroke-width="1.0895" aria-label="Institut für Informatik"/><path transform="matrix(2.1909 0 0 -2.1909 372.05 480.97)" d="m-70.867-27.638 9.0712 19.134 15.307-36.142" fill="#b3c5dd"/><path transform="matrix(2.1909 0 0 -2.1909 372.05 480.97)" d="m-65.765 29.197 3.969-29.906 16.441 36.142" fill="#003d8f"/><path transform="matrix(2.1909 0 0 -2.1909 372.05 480.97)" d="m-20.693 62.93-18.992-23.245 37.418 12.473" fill="#b3c5dd"/><path transform="matrix(2.1909 0 0 -2.1909 372.05 480.97)" d="m-17.575 17.008h-10.063v-39.969h10.063" fill="#003d8f"/><path transform="matrix(2.1909 0 0 -2.1909 372.05 480.97)" d="m-10.205 17.008h7.37l19.134-22.394v22.394h9.9497v-39.969h-7.8238l-19.134 22.252v-22.252h-9.4964" fill="#003d8f"/><path transform="matrix(2.1909 0 0 -2.1909 372.05 480.97)" d="m33.166 17.008h30.048v-8.9293h-19.843v-8.3622h17.008v-8.646h-17.008v-14.032h-10.205" fill="#003d8f"/>
	</g>
</svg>