<!--
  downloaded from https://raw.githubusercontent.com/mattermost/compass-icons/refs/heads/master/svgs/mattermost_E800.svg
  CC BY 4.0 Mattermost
-->
<!--
  simplified using https://svgomg.net/
-->
<svg xmlns="http://www.w3.org/2000/svg" viewBox="0 0 24 24"><path
        d="m17.876 3.909.105 2.122c1.721 1.901 2.4 4.593 1.543 7.124-1.279 3.777-5.495 5.763-9.417 4.435-3.922-1.328-6.066-5.466-4.787-9.243.86-2.539 3.047-4.269 5.579-4.727l1.368-1.617c-4.268-.115-8.295 2.535-9.736 6.791-1.77 5.23 1.034 10.905 6.264 12.675S19.7 20.435 21.47 15.205c1.438-4.249-.144-8.793-3.594-11.296zm-2.451 6.263-.072-2.967-.058-1.707-.039-1.479s.008-.713-.017-.881a.252.252 0 0 0-.03-.089l-.005-.01-.006-.009a.23.23 0 0 0-.293-.096l-.003.001-.018.009a.27.27 0 0 0-.073.051c-.122.118-.548.69-.548.69l-.93 1.151-1.083 1.318-1.86 2.313s-.854 1.065-.665 2.377c.189 1.311 1.163 1.95 1.92 2.206.756.256 1.919.341 2.865-.586.946-.928.915-2.292.915-2.292z"
    /></svg>
