<!--
  downloaded from https://idbroker-eu.webex.com/idb/images/webex-3d-logo.svg
  copyright of this logo belongs to cisco
-->
<!--
  simplified the svg afterwards by using https://svgomg.net/
-->
<svg xmlns="http://www.w3.org/2000/svg" fill="none" viewBox="0 0 88 64"><defs
    ><radialGradient
            id="b"
            cx="0"
            cy="0"
            r="1"
            gradientTransform="matrix(-19 -32 27 -16 33 34)"
            gradientUnits="userSpaceOnUse"
        ><stop stop-color="#007383" /><stop
                offset=".4"
                stop-color="#00717E"
                stop-opacity=".8"
            /><stop
                offset=".9"
                stop-color="#007281"
                stop-opacity="0"
            /></radialGradient><radialGradient
            id="c"
            cx="0"
            cy="0"
            r="1"
            gradientTransform="matrix(-18 -25 16 -12 58 27)"
            gradientUnits="userSpaceOnUse"
        ><stop stop-color="#218970" /><stop
                offset=".5"
                stop-color="#267E6A"
            /><stop
                offset="1"
                stop-color="#026C51"
                stop-opacity="0"
            /></radialGradient><radialGradient
            id="d"
            cx="0"
            cy="0"
            r="1"
            gradientTransform="matrix(-8 -24 12 -4 31 36)"
            gradientUnits="userSpaceOnUse"
        ><stop stop-color="#178697" /><stop
                offset=".4"
                stop-color="#17838F"
                stop-opacity=".8"
            /><stop
                offset=".9"
                stop-color="#007281"
                stop-opacity="0"
            /></radialGradient><radialGradient
            id="e"
            cx="0"
            cy="0"
            r="1"
            gradientTransform="matrix(-33 -55 17 -10 42 36)"
            gradientUnits="userSpaceOnUse"
        ><stop stop-color="#25342F" stop-opacity=".3" /><stop
                offset="1"
                stop-color="#25342F"
                stop-opacity="0"
            /></radialGradient><radialGradient
            id="f"
            cx="0"
            cy="0"
            r="1"
            gradientTransform="matrix(2 24 -14 1 54 28)"
            gradientUnits="userSpaceOnUse"
        ><stop stop-color="#056D4F" /><stop
                offset=".2"
                stop-color="#056C4E"
                stop-opacity=".8"
            /><stop offset=".6" stop-color="#056C4E" stop-opacity=".3" /><stop
                offset=".9"
                stop-color="#056C4F"
                stop-opacity="0"
            /></radialGradient><radialGradient
            id="g"
            cx="0"
            cy="0"
            r="1"
            gradientTransform="matrix(15 24 -12 8 55 -11)"
            gradientUnits="userSpaceOnUse"
        ><stop stop-color="#22B67B" /><stop
                offset=".4"
                stop-color="#24BE82"
            /><stop
                offset="1"
                stop-color="#24BE82"
                stop-opacity=".1"
            /></radialGradient><radialGradient
            id="i"
            cx="0"
            cy="0"
            r="1"
            gradientTransform="matrix(24 28 -28 24 -13 -5)"
            gradientUnits="userSpaceOnUse"
        ><stop stop-color="#09F8FF" /><stop
                offset="1"
                stop-color="#0BF7F9"
                stop-opacity="0"
            /></radialGradient><radialGradient
            id="j"
            cx="0"
            cy="0"
            r="1"
            gradientTransform="matrix(50 55 -55 50 17 -24)"
            gradientUnits="userSpaceOnUse"
        ><stop stop-color="#00B8FF" /><stop
                offset=".7"
                stop-color="#00B9FC"
                stop-opacity="0"
            /></radialGradient><radialGradient
            id="k"
            cx="0"
            cy="0"
            r="1"
            gradientTransform="matrix(-11 -34 24 -7 21 32)"
            gradientUnits="userSpaceOnUse"
        ><stop stop-color="#00BCFF" stop-opacity=".8" /><stop
                offset=".6"
                stop-color="#00BAFC"
                stop-opacity="0"
            /></radialGradient><radialGradient
            id="l"
            cx="0"
            cy="0"
            r="1"
            gradientTransform="matrix(-16 -20 14 -11 75 18)"
            gradientUnits="userSpaceOnUse"
        ><stop stop-color="#5FEC50" /><stop
                offset="1"
                stop-color="#3CC08E"
                stop-opacity="0"
            /></radialGradient><radialGradient
            id="m"
            cx="0"
            cy="0"
            r="1"
            gradientTransform="matrix(1 -8 5 1 72 35)"
            gradientUnits="userSpaceOnUse"
        ><stop stop-color="#28855B" /><stop
                offset="1"
                stop-color="#14795C"
                stop-opacity="0"
            /></radialGradient><radialGradient
            id="n"
            cx="0"
            cy="0"
            r="1"
            gradientTransform="matrix(1 -6 9 2 71 34)"
            gradientUnits="userSpaceOnUse"
        ><stop stop-color="#28855B" /><stop
                offset="1"
                stop-color="#14795C"
                stop-opacity="0"
            /></radialGradient><radialGradient
            id="o"
            cx="0"
            cy="0"
            r="1"
            gradientTransform="matrix(-14 -15 11 -10 79 23)"
            gradientUnits="userSpaceOnUse"
        ><stop stop-color="#5FF05B" /><stop
                offset=".8"
                stop-color="#5DE955"
                stop-opacity="0"
            /></radialGradient><radialGradient
            id="p"
            cx="0"
            cy="0"
            r="1"
            gradientTransform="matrix(15 11 -16 21 72 29)"
            gradientUnits="userSpaceOnUse"
        ><stop stop-color="#123AA8" /><stop
                offset="1"
                stop-color="#123AA8"
                stop-opacity="0"
            /></radialGradient><radialGradient
            id="q"
            cx="0"
            cy="0"
            r="1"
            gradientTransform="matrix(22 3 -5 33 67 31)"
            gradientUnits="userSpaceOnUse"
        ><stop stop-color="#123AA8" /><stop
                offset=".6"
                stop-color="#123AA8"
                stop-opacity="0"
            /></radialGradient><radialGradient
            id="r"
            cx="0"
            cy="0"
            r="1"
            gradientTransform="matrix(17 8 -14 31 69 34)"
            gradientUnits="userSpaceOnUse"
        ><stop stop-color="#123AA8" /><stop
                offset=".8"
                stop-color="#123AA8"
                stop-opacity="0"
            /></radialGradient><radialGradient
            id="s"
            cx="0"
            cy="0"
            r="1"
            gradientTransform="matrix(-3 34 -18 -2 67 35)"
            gradientUnits="userSpaceOnUse"
        ><stop stop-color="#123AA8" /><stop
                offset=".6"
                stop-color="#123AA8"
                stop-opacity="0"
            /><stop
                offset="1"
                stop-color="#123AA8"
                stop-opacity="0"
            /></radialGradient><radialGradient
            id="t"
            cx="0"
            cy="0"
            r="1"
            gradientTransform="matrix(-3 41 -15 -1 72 20)"
            gradientUnits="userSpaceOnUse"
        ><stop stop-color="#123AA8" /><stop
                offset=".9"
                stop-color="#123AA8"
                stop-opacity="0"
            /></radialGradient><radialGradient
            id="u"
            cx="0"
            cy="0"
            r="1"
            gradientTransform="matrix(2 22 -11 1 26 28)"
            gradientUnits="userSpaceOnUse"
        ><stop stop-color="#123AA8" /><stop
                offset=".9"
                stop-color="#123AA8"
                stop-opacity="0"
            /></radialGradient><radialGradient
            id="v"
            cx="0"
            cy="0"
            r="1"
            gradientTransform="matrix(1 23 -19 1 26 29)"
            gradientUnits="userSpaceOnUse"
        ><stop stop-color="#123AA8" /><stop
                offset=".9"
                stop-color="#123AA8"
                stop-opacity="0"
            /></radialGradient><radialGradient
            id="w"
            cx="0"
            cy="0"
            r="1"
            gradientTransform="matrix(23 -10 19 45 31 50)"
            gradientUnits="userSpaceOnUse"
        ><stop stop-color="#123AA8" /><stop
                offset=".7"
                stop-color="#123AA8"
                stop-opacity="0"
            /></radialGradient><radialGradient
            id="x"
            cx="0"
            cy="0"
            r="1"
            gradientTransform="matrix(-16 -6 10 -27 22 23)"
            gradientUnits="userSpaceOnUse"
        ><stop stop-color="#1A3DA0" /><stop
                offset=".7"
                stop-color="#123AA8"
                stop-opacity="0"
            /></radialGradient><radialGradient
            id="y"
            cx="0"
            cy="0"
            r="1"
            gradientTransform="matrix(31 9 -9 31 7 29)"
            gradientUnits="userSpaceOnUse"
        ><stop stop-color="#1E3882" /><stop
                offset=".8"
                stop-color="#123AA8"
                stop-opacity="0"
            /></radialGradient><radialGradient
            id="A"
            cx="0"
            cy="0"
            r="1"
            gradientTransform="matrix(24 28 -28 24 -13 -5)"
            gradientUnits="userSpaceOnUse"
        ><stop stop-color="#09F8FF" /><stop
                offset="1"
                stop-color="#0BF7F9"
                stop-opacity="0"
            /></radialGradient><radialGradient
            id="D"
            cx="0"
            cy="0"
            r="1"
            gradientTransform="matrix(-11 -34 24 -7 21 32)"
            gradientUnits="userSpaceOnUse"
        ><stop stop-color="#00BCFF" stop-opacity=".8" /><stop
                offset=".6"
                stop-color="#00BAFC"
                stop-opacity="0"
            /></radialGradient><linearGradient
            id="a"
            x1="73"
            x2="15.5"
            y1="18.7"
            y2="37.6"
            gradientUnits="userSpaceOnUse"
        ><stop stop-color="#5CEE64" /><stop
                offset="1"
                stop-color="#0BF"
            /></linearGradient><linearGradient
            id="h"
            x1="-21.7"
            x2="19.1"
            y1="31.3"
            y2="31.7"
            gradientUnits="userSpaceOnUse"
        ><stop stop-color="#09F8FF" /><stop
                offset="1"
                stop-color="#0BF7F9"
                stop-opacity="0"
            /></linearGradient><linearGradient
            id="z"
            x1="-2.6"
            x2="28.7"
            y1="11.4"
            y2="31.4"
            gradientUnits="userSpaceOnUse"
        ><stop offset=".2" stop-color="#1DC4FF" /><stop
                offset="1"
                stop-color="#1CC1FF"
                stop-opacity="0"
            /></linearGradient><linearGradient
            id="B"
            x1="-.9"
            x2="7.9"
            y1="12.4"
            y2="20.4"
            gradientUnits="userSpaceOnUse"
        ><stop stop-color="#26FBFF" /><stop
                offset=".6"
                stop-color="#0BF7F9"
                stop-opacity="0"
            /></linearGradient><linearGradient
            id="C"
            x1="-3.3"
            x2="8.9"
            y1="18.5"
            y2="19.4"
            gradientUnits="userSpaceOnUse"
        ><stop stop-color="#26FBFF" /><stop
                offset=".6"
                stop-color="#0BF7F9"
                stop-opacity="0"
            /></linearGradient></defs><path
        fill="url(#a)"
        d="M27 64C11 64 5 43 4 39L0 19c-1-5 4-9 9-9 3 0 8 2 8 7 0 1 1 9 4 17 2 9 5 12 7 12 4 0 6-8 8-17 1-6 2-12 5-17C46 2 54 0 60 0c15 0 22 17 22 21 0 7-6 9-8 9-6 0-8-4-9-7-2-3-3-5-5-5h-2c-5 5-6 31-16 40-5 6-11 6-15 6Z"
    /><path
        fill="url(#b)"
        d="M27 64C11 64 5 43 4 39L0 19c-1-5 4-9 9-9 3 0 8 2 8 7 0 1 1 9 4 17 2 9 5 12 7 12 4 0 6-8 8-17 1-6 2-12 5-17C46 2 54 0 60 0c15 0 22 17 22 21 0 7-6 9-8 9-6 0-8-4-9-7-2-3-3-5-5-5h-2c-5 5-6 31-16 40-5 6-11 6-15 6Z"
    /><path
        fill="url(#c)"
        d="M27 64C11 64 5 43 4 39L0 19c-1-5 4-9 9-9 3 0 8 2 8 7 0 1 1 9 4 17 2 9 5 12 7 12 4 0 6-8 8-17 1-6 2-12 5-17C46 2 54 0 60 0c15 0 22 17 22 21 0 7-6 9-8 9-6 0-8-4-9-7-2-3-3-5-5-5h-2c-5 5-6 31-16 40-5 6-11 6-15 6Z"
    /><path
        fill="url(#d)"
        d="M27 64C11 64 5 43 4 39L0 19c-1-5 4-9 9-9 3 0 8 2 8 7 0 1 1 9 4 17 2 9 5 12 7 12 4 0 6-8 8-17 1-6 2-12 5-17C46 2 54 0 60 0c15 0 22 17 22 21 0 7-6 9-8 9-6 0-8-4-9-7-2-3-3-5-5-5h-2c-5 5-6 31-16 40-5 6-11 6-15 6Z"
    /><path
        fill="url(#e)"
        d="M27 64C11 64 5 43 4 39L0 19c-1-5 4-9 9-9 3 0 8 2 8 7 0 1 1 9 4 17 2 9 5 12 7 12 4 0 6-8 8-17 1-6 2-12 5-17C46 2 54 0 60 0c15 0 22 17 22 21 0 7-6 9-8 9-6 0-8-4-9-7-2-3-3-5-5-5h-2c-5 5-6 31-16 40-5 6-11 6-15 6Z"
    /><path
        fill="url(#f)"
        d="M27 64C11 64 5 43 4 39L0 19c-1-5 4-9 9-9 3 0 8 2 8 7 0 1 1 9 4 17 2 9 5 12 7 12 4 0 6-8 8-17 1-6 2-12 5-17C46 2 54 0 60 0c15 0 22 17 22 21 0 7-6 9-8 9-6 0-8-4-9-7-2-3-3-5-5-5h-2c-5 5-6 31-16 40-5 6-11 6-15 6Z"
    /><path
        fill="url(#g)"
        d="M27 64C11 64 5 43 4 39L0 19c-1-5 4-9 9-9 3 0 8 2 8 7 0 1 1 9 4 17 2 9 5 12 7 12 4 0 6-8 8-17 1-6 2-12 5-17C46 2 54 0 60 0c15 0 22 17 22 21 0 7-6 9-8 9-6 0-8-4-9-7-2-3-3-5-5-5h-2c-5 5-6 31-16 40-5 6-11 6-15 6Z"
    /><path
        fill="url(#h)"
        d="M27 64C11 64 5 43 4 39L0 19c-1-5 4-9 9-9 3 0 8 2 8 7 0 1 1 9 4 17 2 9 5 12 7 12 4 0 6-8 8-17 1-6 2-12 5-17C46 2 54 0 60 0c15 0 22 17 22 21 0 7-6 9-8 9-6 0-8-4-9-7-2-3-3-5-5-5h-2c-5 5-6 31-16 40-5 6-11 6-15 6Z"
    /><path
        fill="url(#i)"
        d="M27 64C11 64 5 43 4 39L0 19c-1-5 4-9 9-9 3 0 8 2 8 7 0 1 1 9 4 17 2 9 5 12 7 12 4 0 6-8 8-17 1-6 2-12 5-17C46 2 54 0 60 0c15 0 22 17 22 21 0 7-6 9-8 9-6 0-8-4-9-7-2-3-3-5-5-5h-2c-5 5-6 31-16 40-5 6-11 6-15 6Z"
    /><path
        fill="url(#j)"
        d="M60 0c-6 0-14 2-19 12l-5 17-2 6v28l8-5c10-9 11-35 16-40h2c2 0 3 2 5 5 1 3 3 7 9 7 2 0 8-2 8-9 0-4-7-21-22-21Z"
    /><path
        fill="url(#k)"
        d="M27 64C11 64 5 43 4 39L0 19c-1-5 4-9 9-9 3 0 8 2 8 7 0 1 1 9 4 17 2 9 5 12 7 12 4 0 6-8 8-17 1-6 2-12 5-17C46 2 54 0 60 0c15 0 22 17 22 21 0 7-6 9-8 9-6 0-8-4-9-7-2-3-3-5-5-5h-2c-5 5-6 31-16 40-5 6-11 6-15 6Z"
    /><path
        fill="url(#l)"
        d="M27 64C11 64 5 43 4 39L0 19c-1-5 4-9 9-9 3 0 8 2 8 7 0 1 1 9 4 17 2 9 5 12 7 12 4 0 6-8 8-17 1-6 2-12 5-17C46 2 54 0 60 0c15 0 22 17 22 21 0 7-6 9-8 9-6 0-8-4-9-7-2-3-3-5-5-5h-2c-5 5-6 31-16 40-5 6-11 6-15 6Z"
    /><path
        fill="url(#m)"
        d="M27 64C11 64 5 43 4 39L0 19c-1-5 4-9 9-9 3 0 8 2 8 7 0 1 1 9 4 17 2 9 5 12 7 12 4 0 6-8 8-17 1-6 2-12 5-17C46 2 54 0 60 0c15 0 22 17 22 21 0 7-6 9-8 9-6 0-8-4-9-7-2-3-3-5-5-5h-2c-5 5-6 31-16 40-5 6-11 6-15 6Z"
    /><path
        fill="url(#n)"
        d="M27 64C11 64 5 43 4 39L0 19c-1-5 4-9 9-9 3 0 8 2 8 7 0 1 1 9 4 17 2 9 5 12 7 12 4 0 6-8 8-17 1-6 2-12 5-17C46 2 54 0 60 0c15 0 22 17 22 21 0 7-6 9-8 9-6 0-8-4-9-7-2-3-3-5-5-5h-2c-5 5-6 31-16 40-5 6-11 6-15 6Z"
    /><path
        fill="url(#o)"
        d="M27 64C11 64 5 43 4 39L0 19c-1-5 4-9 9-9 3 0 8 2 8 7 0 1 1 9 4 17 2 9 5 12 7 12 4 0 6-8 8-17 1-6 2-12 5-17C46 2 54 0 60 0c15 0 22 17 22 21 0 7-6 9-8 9-6 0-8-4-9-7-2-3-3-5-5-5h-2c-5 5-6 31-16 40-5 6-11 6-15 6Z"
    /><path
        fill="#316AFF"
        d="M79 10h-2c3 4 5 9 5 11 0 7-6 9-8 9l-5-1-1 4-4 9c-1 3-3 4-5 4-1 0-3-2-5-9l-2-8c-1-6-3-12-6-17C42 3 34 0 28 0S17 3 14 6l-3 4c3 1 6 3 6 7l3 15 3-9 3-4 2-1c1 0 3 0 5 8 3 9 5 24 13 32 3 4 8 6 14 6s11-3 14-6c6-6 9-15 10-19l4-20c1-5-4-9-9-9Z"
    /><path
        fill="url(#p)"
        d="M79 10h-2c3 4 5 9 5 11 0 7-6 9-8 9l-5-1-1 4-4 9c-1 3-3 4-5 4-1 0-3-2-5-9l-2-8c-1-6-3-12-6-17C42 3 34 0 28 0S17 3 14 6l-3 4c3 1 6 3 6 7l3 15 3-9 3-4 2-1c1 0 3 0 5 8 3 9 5 24 13 32 3 4 8 6 14 6s11-3 14-6c6-6 9-15 10-19l4-20c1-5-4-9-9-9Z"
    /><path
        fill="url(#q)"
        d="M79 10h-2c3 4 5 9 5 11 0 7-6 9-8 9l-5-1-1 4-4 9c-1 3-3 4-5 4-1 0-3-2-5-9l-2-8c-1-6-3-12-6-17C42 3 34 0 28 0S17 3 14 6l-3 4c3 1 6 3 6 7l3 15 3-9 3-4 2-1c1 0 3 0 5 8 3 9 5 24 13 32 3 4 8 6 14 6s11-3 14-6c6-6 9-15 10-19l4-20c1-5-4-9-9-9Z"
    /><path
        fill="url(#r)"
        d="M79 10h-2c3 4 5 9 5 11 0 7-6 9-8 9l-5-1-1 4-4 9c-1 3-3 4-5 4-1 0-3-2-5-9l-2-8c-1-6-3-12-6-17C42 3 34 0 28 0S17 3 14 6l-3 4c3 1 6 3 6 7l3 15 3-9 3-4 2-1c1 0 3 0 5 8 3 9 5 24 13 32 3 4 8 6 14 6s11-3 14-6c6-6 9-15 10-19l4-20c1-5-4-9-9-9Z"
    /><path
        fill="url(#s)"
        d="M79 10h-2c3 4 5 9 5 11 0 7-6 9-8 9l-5-1-1 4-4 9c-1 3-3 4-5 4-1 0-3-2-5-9l-2-8c-1-6-3-12-6-17C42 3 34 0 28 0S17 3 14 6l-3 4c3 1 6 3 6 7l3 15 3-9 3-4 2-1c1 0 3 0 5 8 3 9 5 24 13 32 3 4 8 6 14 6s11-3 14-6c6-6 9-15 10-19l4-20c1-5-4-9-9-9Z"
    /><path
        fill="url(#t)"
        d="M79 10h-2c3 4 5 9 5 11 0 7-6 9-8 9l-5-1-1 4-4 9c-1 3-3 4-5 4-1 0-3-2-5-9l-2-8c-1-6-3-12-6-17C42 3 34 0 28 0S17 3 14 6l-3 4c3 1 6 3 6 7l3 15 3-9 3-4 2-1c1 0 3 0 5 8 3 9 5 24 13 32 3 4 8 6 14 6s11-3 14-6c6-6 9-15 10-19l4-20c1-5-4-9-9-9Z"
    /><path
        fill="url(#u)"
        d="M79 10h-2c3 4 5 9 5 11 0 7-6 9-8 9l-5-1-1 4-4 9c-1 3-3 4-5 4-1 0-3-2-5-9l-2-8c-1-6-3-12-6-17C42 3 34 0 28 0S17 3 14 6l-3 4c3 1 6 3 6 7l3 15 3-9 3-4 2-1c1 0 3 0 5 8 3 9 5 24 13 32 3 4 8 6 14 6s11-3 14-6c6-6 9-15 10-19l4-20c1-5-4-9-9-9Z"
    /><path
        fill="url(#v)"
        d="M79 10h-2c3 4 5 9 5 11 0 7-6 9-8 9l-5-1-1 4-4 9c-1 3-3 4-5 4-1 0-3-2-5-9l-2-8c-1-6-3-12-6-17C42 3 34 0 28 0S17 3 14 6l-3 4c3 1 6 3 6 7l3 15 3-9 3-4 2-1c1 0 3 0 5 8 3 9 5 24 13 32 3 4 8 6 14 6s11-3 14-6c6-6 9-15 10-19l4-20c1-5-4-9-9-9Z"
    /><path
        fill="url(#w)"
        d="M79 10h-2c3 4 5 9 5 11 0 7-6 9-8 9l-5-1-1 4-4 9c-1 3-3 4-5 4-1 0-3-2-5-9l-2-8c-1-6-3-12-6-17C42 3 34 0 28 0S17 3 14 6l-3 4c3 1 6 3 6 7l3 15 3-9 3-4 2-1c1 0 3 0 5 8 3 9 5 24 13 32 3 4 8 6 14 6s11-3 14-6c6-6 9-15 10-19l4-20c1-5-4-9-9-9Z"
    /><path
        fill="url(#x)"
        d="M79 10h-2c3 4 5 9 5 11 0 7-6 9-8 9l-5-1-1 4-4 9c-1 3-3 4-5 4-1 0-3-2-5-9l-2-8c-1-6-3-12-6-17C42 3 34 0 28 0S17 3 14 6l-3 4c3 1 6 3 6 7l3 15 3-9 3-4 2-1c1 0 3 0 5 8 3 9 5 24 13 32 3 4 8 6 14 6s11-3 14-6c6-6 9-15 10-19l4-20c1-5-4-9-9-9Z"
    /><path
        fill="url(#y)"
        d="M79 10h-2c3 4 5 9 5 11 0 7-6 9-8 9l-5-1-1 4-4 9c-1 3-3 4-5 4-1 0-3-2-5-9l-2-8c-1-6-3-12-6-17C42 3 34 0 28 0S17 3 14 6l-3 4c3 1 6 3 6 7l3 15 3-9 3-4 2-1c1 0 3 0 5 8 3 9 5 24 13 32 3 4 8 6 14 6s11-3 14-6c6-6 9-15 10-19l4-20c1-5-4-9-9-9Z"
    /><path
        fill="url(#z)"
        d="M27 64C11 64 5 43 4 39L0 19c-1-5 4-9 9-9 3 0 8 2 8 7 0 1 1 9 4 17 2 9 5 12 7 12 4 0 6-8 8-17 1-6 2-12 5-17C46 2 54 0 60 0c15 0 22 17 22 21 0 7-6 9-8 9-6 0-8-4-9-7-2-3-3-5-5-5h-2c-5 5-6 31-16 40-5 6-11 6-15 6Z"
    /><path
        fill="url(#A)"
        d="M27 64C11 64 5 43 4 39L0 19c-1-5 4-9 9-9 3 0 8 2 8 7 0 1 1 9 4 17 2 9 5 12 7 12 4 0 6-8 8-17 1-6 2-12 5-17C46 2 54 0 60 0c15 0 22 17 22 21 0 7-6 9-8 9-6 0-8-4-9-7-2-3-3-5-5-5h-2c-5 5-6 31-16 40-5 6-11 6-15 6Z"
    /><path
        fill="url(#B)"
        d="M27 64C11 64 5 43 4 39L0 19c-1-5 4-9 9-9 3 0 8 2 8 7 0 1 1 9 4 17 2 9 5 12 7 12 4 0 6-8 8-17 1-6 2-12 5-17C46 2 54 0 60 0c15 0 22 17 22 21 0 7-6 9-8 9-6 0-8-4-9-7-2-3-3-5-5-5h-2c-5 5-6 31-16 40-5 6-11 6-15 6Z"
    /><path
        fill="url(#C)"
        d="M27 64C11 64 5 43 4 39L0 19c-1-5 4-9 9-9 3 0 8 2 8 7 0 1 1 9 4 17 2 9 5 12 7 12 4 0 6-8 8-17 1-6 2-12 5-17C46 2 54 0 60 0c15 0 22 17 22 21 0 7-6 9-8 9-6 0-8-4-9-7-2-3-3-5-5-5h-2c-5 5-6 31-16 40-5 6-11 6-15 6Z"
    /><path
        fill="url(#D)"
        d="M27 64C11 64 5 43 4 39L0 19c-1-5 4-9 9-9 3 0 8 2 8 7 0 1 1 9 4 17 2 9 5 12 7 12 4 0 6-8 8-17 1-6 2-12 5-17C46 2 54 0 60 0c15 0 22 17 22 21 0 7-6 9-8 9-6 0-8-4-9-7-2-3-3-5-5-5h-2c-5 5-6 31-16 40-5 6-11 6-15 6Z"
    /></svg>
